<mxfile host="app.diagrams.net" agent="Mozilla/5.0 (Windows NT 10.0; Win64; x64) AppleWebKit/537.36 (KHTML, like Gecko) Chrome/134.0.0.0 Safari/537.36" version="26.1.1" pages="2">
  <diagram name="General Overview" id="shDRWNZvnX7oFYFKqbct">
    <mxGraphModel dx="1434" dy="833" grid="1" gridSize="10" guides="1" tooltips="1" connect="1" arrows="1" fold="1" page="1" pageScale="1" pageWidth="850" pageHeight="1100" math="0" shadow="0">
      <root>
        <mxCell id="0" />
        <mxCell id="1" parent="0" />
        <mxCell id="mdp_7tGtDBxIPbWVfXat-2" value="The Learning Ideas, Procedure and Flow of Mathematics that the author is insisting on and is planning to use in his book" style="swimlane;whiteSpace=wrap;html=1;startSize=40;" vertex="1" parent="1">
          <mxGeometry x="70" y="180" width="1010" height="380" as="geometry" />
        </mxCell>
        <mxCell id="mdp_7tGtDBxIPbWVfXat-15" style="edgeStyle=orthogonalEdgeStyle;curved=1;rounded=0;orthogonalLoop=1;jettySize=auto;html=1;" edge="1" parent="mdp_7tGtDBxIPbWVfXat-2" source="mdp_7tGtDBxIPbWVfXat-14" target="mdp_7tGtDBxIPbWVfXat-13">
          <mxGeometry relative="1" as="geometry" />
        </mxCell>
        <mxCell id="mdp_7tGtDBxIPbWVfXat-14" value="" style="swimlane;startSize=0;" vertex="1" parent="mdp_7tGtDBxIPbWVfXat-2">
          <mxGeometry x="260" y="60" width="510" height="120" as="geometry" />
        </mxCell>
        <mxCell id="mdp_7tGtDBxIPbWVfXat-1" value="Coherence in Presentation of Mathematical Concepts&lt;div&gt;(Clear and Rigorous)&lt;/div&gt;" style="rounded=1;whiteSpace=wrap;html=1;treeMoving=1;" vertex="1" parent="mdp_7tGtDBxIPbWVfXat-14">
          <mxGeometry x="35" y="30" width="180" height="60" as="geometry" />
        </mxCell>
        <mxCell id="mdp_7tGtDBxIPbWVfXat-12" style="edgeStyle=orthogonalEdgeStyle;curved=1;rounded=0;orthogonalLoop=1;jettySize=auto;html=1;" edge="1" parent="mdp_7tGtDBxIPbWVfXat-14" source="mdp_7tGtDBxIPbWVfXat-1" target="mdp_7tGtDBxIPbWVfXat-3">
          <mxGeometry relative="1" as="geometry" />
        </mxCell>
        <mxCell id="mdp_7tGtDBxIPbWVfXat-3" value="Systematic Development of the Continuity of the Concepts Evolution" style="rounded=1;whiteSpace=wrap;html=1;treeMoving=1;" vertex="1" parent="mdp_7tGtDBxIPbWVfXat-14">
          <mxGeometry x="315" y="30" width="160" height="60" as="geometry" />
        </mxCell>
        <mxCell id="mdp_7tGtDBxIPbWVfXat-13" value="" style="swimlane;startSize=0;" vertex="1" parent="mdp_7tGtDBxIPbWVfXat-2">
          <mxGeometry x="50" y="230" width="930" height="120" as="geometry" />
        </mxCell>
        <mxCell id="mdp_7tGtDBxIPbWVfXat-7" value="" style="edgeStyle=orthogonalEdgeStyle;rounded=0;orthogonalLoop=1;jettySize=auto;html=1;curved=1;" edge="1" parent="mdp_7tGtDBxIPbWVfXat-13" source="mdp_7tGtDBxIPbWVfXat-4" target="mdp_7tGtDBxIPbWVfXat-6">
          <mxGeometry relative="1" as="geometry" />
        </mxCell>
        <mxCell id="mdp_7tGtDBxIPbWVfXat-4" value="Pression, not Mathematical Poetry" style="rounded=1;whiteSpace=wrap;html=1;treeMoving=1;" vertex="1" parent="mdp_7tGtDBxIPbWVfXat-13">
          <mxGeometry x="15" y="30" width="160" height="60" as="geometry" />
        </mxCell>
        <mxCell id="mdp_7tGtDBxIPbWVfXat-10" style="edgeStyle=orthogonalEdgeStyle;curved=1;rounded=0;orthogonalLoop=1;jettySize=auto;html=1;entryX=0;entryY=0.5;entryDx=0;entryDy=0;" edge="1" parent="mdp_7tGtDBxIPbWVfXat-13" source="mdp_7tGtDBxIPbWVfXat-6" target="mdp_7tGtDBxIPbWVfXat-8">
          <mxGeometry relative="1" as="geometry" />
        </mxCell>
        <mxCell id="mdp_7tGtDBxIPbWVfXat-6" value="Definitions as a Source of Reference for what is ahead" style="rounded=1;whiteSpace=wrap;html=1;treeMoving=1;" vertex="1" parent="mdp_7tGtDBxIPbWVfXat-13">
          <mxGeometry x="265" y="30" width="160" height="60" as="geometry" />
        </mxCell>
        <mxCell id="mdp_7tGtDBxIPbWVfXat-11" style="edgeStyle=orthogonalEdgeStyle;curved=1;rounded=0;orthogonalLoop=1;jettySize=auto;html=1;" edge="1" parent="mdp_7tGtDBxIPbWVfXat-13" source="mdp_7tGtDBxIPbWVfXat-8" target="mdp_7tGtDBxIPbWVfXat-9">
          <mxGeometry relative="1" as="geometry" />
        </mxCell>
        <mxCell id="mdp_7tGtDBxIPbWVfXat-8" value="Reasoning, Knowing the Answer of Whys&amp;nbsp;" style="rounded=1;whiteSpace=wrap;html=1;treeMoving=1;" vertex="1" parent="mdp_7tGtDBxIPbWVfXat-13">
          <mxGeometry x="495" y="30" width="160" height="60" as="geometry" />
        </mxCell>
        <mxCell id="mdp_7tGtDBxIPbWVfXat-9" value="Structure of Mathematics and the Hierarchy of Concepts&lt;br&gt;(Simple to Complex)&amp;nbsp;" style="rounded=1;whiteSpace=wrap;html=1;treeMoving=1;" vertex="1" parent="mdp_7tGtDBxIPbWVfXat-13">
          <mxGeometry x="715" y="30" width="200" height="60" as="geometry" />
        </mxCell>
      </root>
    </mxGraphModel>
  </diagram>
  <diagram id="rg9Na_1upJ0dIW0Xs7UA" name="Part 1">
    <mxGraphModel dx="1425" dy="2812" grid="1" gridSize="10" guides="1" tooltips="1" connect="1" arrows="1" fold="1" page="1" pageScale="1" pageWidth="850" pageHeight="1100" math="0" shadow="0">
      <root>
        <mxCell id="0" />
        <mxCell id="1" parent="0" />
        <mxCell id="lGUjHlw22iz0TzfWs2PY-1" value="Part 1 - Whole Numbers&lt;div&gt;The Fundamental Study of the Decimal Numeral System&lt;/div&gt;" style="swimlane;whiteSpace=wrap;html=1;startSize=50;" vertex="1" parent="1">
          <mxGeometry x="-20" y="90" width="1030" height="480" as="geometry" />
        </mxCell>
        <mxCell id="80_0cNDGBrCH30zZ3iBI-23" style="edgeStyle=orthogonalEdgeStyle;curved=1;rounded=0;orthogonalLoop=1;jettySize=auto;html=1;" edge="1" parent="lGUjHlw22iz0TzfWs2PY-1" source="lGUjHlw22iz0TzfWs2PY-3" target="80_0cNDGBrCH30zZ3iBI-7">
          <mxGeometry relative="1" as="geometry" />
        </mxCell>
        <mxCell id="lGUjHlw22iz0TzfWs2PY-3" value="" style="swimlane;startSize=0;" vertex="1" parent="lGUjHlw22iz0TzfWs2PY-1">
          <mxGeometry x="75" y="80" width="880" height="140" as="geometry" />
        </mxCell>
        <mxCell id="80_0cNDGBrCH30zZ3iBI-1" value="Learn the Whole Numbers" style="rounded=1;whiteSpace=wrap;html=1;treeMoving=1;" vertex="1" parent="lGUjHlw22iz0TzfWs2PY-3">
          <mxGeometry x="60" y="40" width="180" height="60" as="geometry" />
        </mxCell>
        <mxCell id="80_0cNDGBrCH30zZ3iBI-3" value="How to use the Arithmetic Algorithms" style="rounded=1;whiteSpace=wrap;html=1;treeMoving=1;" vertex="1" parent="lGUjHlw22iz0TzfWs2PY-3">
          <mxGeometry x="360" y="40" width="180" height="60" as="geometry" />
        </mxCell>
        <mxCell id="80_0cNDGBrCH30zZ3iBI-4" value="" style="edgeStyle=orthogonalEdgeStyle;curved=1;rounded=0;orthogonalLoop=1;jettySize=auto;html=1;" edge="1" parent="lGUjHlw22iz0TzfWs2PY-3" source="80_0cNDGBrCH30zZ3iBI-1" target="80_0cNDGBrCH30zZ3iBI-3">
          <mxGeometry relative="1" as="geometry" />
        </mxCell>
        <mxCell id="80_0cNDGBrCH30zZ3iBI-5" value="How to Make Estimates" style="rounded=1;whiteSpace=wrap;html=1;treeMoving=1;" vertex="1" parent="lGUjHlw22iz0TzfWs2PY-3">
          <mxGeometry x="660" y="40" width="180" height="60" as="geometry" />
        </mxCell>
        <mxCell id="80_0cNDGBrCH30zZ3iBI-6" value="" style="edgeStyle=orthogonalEdgeStyle;curved=1;rounded=0;orthogonalLoop=1;jettySize=auto;html=1;" edge="1" parent="lGUjHlw22iz0TzfWs2PY-3" source="80_0cNDGBrCH30zZ3iBI-3" target="80_0cNDGBrCH30zZ3iBI-5">
          <mxGeometry relative="1" as="geometry" />
        </mxCell>
        <mxCell id="80_0cNDGBrCH30zZ3iBI-7" value="" style="swimlane;startSize=0;" vertex="1" parent="lGUjHlw22iz0TzfWs2PY-1">
          <mxGeometry x="30" y="290" width="970" height="150" as="geometry" />
        </mxCell>
        <mxCell id="80_0cNDGBrCH30zZ3iBI-8" value="&lt;div&gt;Counting&lt;/div&gt;&lt;div&gt;&lt;br&gt;&lt;/div&gt;Counting in the Decimal Numeral System" style="rounded=1;whiteSpace=wrap;html=1;treeMoving=1;" vertex="1" parent="80_0cNDGBrCH30zZ3iBI-7">
          <mxGeometry x="20" y="37.5" width="190" height="75" as="geometry" />
        </mxCell>
        <mxCell id="80_0cNDGBrCH30zZ3iBI-22" style="edgeStyle=orthogonalEdgeStyle;curved=1;rounded=0;orthogonalLoop=1;jettySize=auto;html=1;" edge="1" parent="80_0cNDGBrCH30zZ3iBI-7" source="80_0cNDGBrCH30zZ3iBI-19" target="80_0cNDGBrCH30zZ3iBI-20">
          <mxGeometry relative="1" as="geometry" />
        </mxCell>
        <mxCell id="80_0cNDGBrCH30zZ3iBI-19" value="&lt;div&gt;Standard Algorithms&lt;/div&gt;&lt;div&gt;&lt;br&gt;&lt;/div&gt;Procedures of Standard Arithmetic Algorithms and Logical Reasoning behind them" style="rounded=1;whiteSpace=wrap;html=1;treeMoving=1;" vertex="1" parent="80_0cNDGBrCH30zZ3iBI-7">
          <mxGeometry x="241" y="30" width="200" height="90" as="geometry" />
        </mxCell>
        <mxCell id="80_0cNDGBrCH30zZ3iBI-31" style="edgeStyle=orthogonalEdgeStyle;curved=1;rounded=0;orthogonalLoop=1;jettySize=auto;html=1;" edge="1" parent="80_0cNDGBrCH30zZ3iBI-7" source="80_0cNDGBrCH30zZ3iBI-20" target="80_0cNDGBrCH30zZ3iBI-30">
          <mxGeometry relative="1" as="geometry" />
        </mxCell>
        <mxCell id="80_0cNDGBrCH30zZ3iBI-20" value="&lt;div&gt;Estimates&lt;/div&gt;&lt;div&gt;&lt;br&gt;&lt;/div&gt;Making Estimates, and Understanding Why they are Important, and When they are appropriate" style="rounded=1;whiteSpace=wrap;html=1;treeMoving=1;" vertex="1" parent="80_0cNDGBrCH30zZ3iBI-7">
          <mxGeometry x="488" y="20" width="200" height="110" as="geometry" />
        </mxCell>
        <mxCell id="80_0cNDGBrCH30zZ3iBI-21" style="edgeStyle=orthogonalEdgeStyle;curved=1;rounded=0;orthogonalLoop=1;jettySize=auto;html=1;" edge="1" parent="80_0cNDGBrCH30zZ3iBI-7" source="80_0cNDGBrCH30zZ3iBI-8" target="80_0cNDGBrCH30zZ3iBI-19">
          <mxGeometry relative="1" as="geometry" />
        </mxCell>
        <mxCell id="80_0cNDGBrCH30zZ3iBI-30" value="&lt;div&gt;Number Systems&lt;/div&gt;&lt;div&gt;&lt;br&gt;&lt;/div&gt;Understanding how to Represent Numbers in Systems other than the Hindu-Arabic Decimal System" style="rounded=1;whiteSpace=wrap;html=1;treeMoving=1;" vertex="1" parent="80_0cNDGBrCH30zZ3iBI-7">
          <mxGeometry x="750" y="20" width="200" height="110" as="geometry" />
        </mxCell>
        <mxCell id="80_0cNDGBrCH30zZ3iBI-36" style="edgeStyle=orthogonalEdgeStyle;curved=1;rounded=0;orthogonalLoop=1;jettySize=auto;html=1;" edge="1" parent="1" source="80_0cNDGBrCH30zZ3iBI-32" target="80_0cNDGBrCH30zZ3iBI-33">
          <mxGeometry relative="1" as="geometry" />
        </mxCell>
        <mxCell id="80_0cNDGBrCH30zZ3iBI-32" value="&lt;h1 style=&quot;margin-top: 0px;&quot;&gt;Ch01: Place Value&lt;/h1&gt;&lt;p&gt;&lt;/p&gt;&lt;ul&gt;&lt;li&gt;is a very essential idea in whole number arithmetic&lt;/li&gt;&lt;li&gt;is an inevitable consequence of the way our numeral system, the Hindu-Arabic Decimal System, keeps track of the counting of (whole) numbers&lt;/li&gt;&lt;/ul&gt;&lt;p&gt;&lt;/p&gt;" style="text;html=1;whiteSpace=wrap;overflow=hidden;rounded=0;" vertex="1" parent="1">
          <mxGeometry x="1170" y="130" width="370" height="120" as="geometry" />
        </mxCell>
        <mxCell id="80_0cNDGBrCH30zZ3iBI-35" value="" style="edgeStyle=orthogonalEdgeStyle;curved=1;rounded=0;orthogonalLoop=1;jettySize=auto;html=1;" edge="1" parent="1" source="80_0cNDGBrCH30zZ3iBI-33" target="80_0cNDGBrCH30zZ3iBI-34">
          <mxGeometry relative="1" as="geometry" />
        </mxCell>
        <mxCell id="80_0cNDGBrCH30zZ3iBI-38" value="" style="edgeStyle=orthogonalEdgeStyle;curved=1;rounded=0;orthogonalLoop=1;jettySize=auto;html=1;" edge="1" parent="1" source="80_0cNDGBrCH30zZ3iBI-33" target="80_0cNDGBrCH30zZ3iBI-37">
          <mxGeometry relative="1" as="geometry" />
        </mxCell>
        <mxCell id="80_0cNDGBrCH30zZ3iBI-33" value="What will we study in this section?" style="rounded=1;whiteSpace=wrap;html=1;treeMoving=1;" vertex="1" parent="1">
          <mxGeometry x="1265" y="10" width="180" height="60" as="geometry" />
        </mxCell>
        <mxCell id="80_0cNDGBrCH30zZ3iBI-34" value="How counting is done" style="rounded=1;whiteSpace=wrap;html=1;treeMoving=1;" vertex="1" parent="1">
          <mxGeometry x="1160" y="-160" width="180" height="90" as="geometry" />
        </mxCell>
        <mxCell id="80_0cNDGBrCH30zZ3iBI-37" value="Why a thorough understanding of counting elucidates other basic concepts related to whole numbers" style="rounded=1;whiteSpace=wrap;html=1;treeMoving=1;" vertex="1" parent="1">
          <mxGeometry x="1380" y="-160" width="200" height="90" as="geometry" />
        </mxCell>
        <mxCell id="80_0cNDGBrCH30zZ3iBI-39" value="" style="shape=image;verticalLabelPosition=bottom;labelBackgroundColor=default;verticalAlign=top;aspect=fixed;imageAspect=0;image=https://i.pinimg.com/736x/32/bb/ea/32bbea2fc307d0630517bd6d29026683.jpg;" vertex="1" parent="1">
          <mxGeometry x="270" y="-810" width="720" height="464" as="geometry" />
        </mxCell>
        <mxCell id="80_0cNDGBrCH30zZ3iBI-40" value="" style="shape=image;verticalLabelPosition=bottom;labelBackgroundColor=default;verticalAlign=top;aspect=fixed;imageAspect=0;image=https://64.media.tumblr.com/ce4bf3f9f1db956c670d5518e252a6bf/tumblr_mo9lgzUhiJ1qbh26io1_500.jpg;" vertex="1" parent="1">
          <mxGeometry x="300" y="-1240" width="500" height="365" as="geometry" />
        </mxCell>
        <mxCell id="80_0cNDGBrCH30zZ3iBI-41" value="" style="shape=image;verticalLabelPosition=bottom;labelBackgroundColor=default;verticalAlign=top;aspect=fixed;imageAspect=0;image=https://www.mrgori.com/images/Number%20progression.jpg;" vertex="1" parent="1">
          <mxGeometry x="290.85" y="-1730" width="678.31" height="440" as="geometry" />
        </mxCell>
        <mxCell id="80_0cNDGBrCH30zZ3iBI-42" value="" style="shape=image;verticalLabelPosition=bottom;labelBackgroundColor=default;verticalAlign=top;aspect=fixed;imageAspect=0;image=https://upload.wikimedia.org/wikipedia/commons/thumb/a/a7/Evolution_of_Hindu-Arabic_numerals.jpg/388px-Evolution_of_Hindu-Arabic_numerals.jpg;" vertex="1" parent="1">
          <mxGeometry x="1010" y="-1770" width="388" height="480" as="geometry" />
        </mxCell>
        <mxCell id="80_0cNDGBrCH30zZ3iBI-47" value="" style="shape=image;verticalLabelPosition=bottom;labelBackgroundColor=default;verticalAlign=top;aspect=fixed;imageAspect=0;image=data:image/jpeg,R0lGODlhKQGWAIYAAExpcd/f3zQ0NLu7uxgYGJ+fn2ZmZu7u7hEREVFRURAQEFBQUJ8QEJCQkLlQUB4eHtOQkNDQ0OzQ0DMzM4iIiI+Pj8/PzyQkJN3d3QAAAEBAQJkAAICAgLNAQMyAgMDAwObAwFVVVSoqKqqqqr+/v////yIiIpubm2JiYjAwMHBwcKwwMMZwcLCwsHd3d9+wsPDw8Pnw8MzMzCgoKK+vr+/v70RERCMfINmgoODg4PPg4KYgIKCgoL9gYCAgIJmZmWBgYAAAAAAAAAAAAAAAAAAAAAAAAAAAAAAAAAAAAAAAAAAAAAAAAAAAAAAAAAAAAAAAAAAAAAAAAAAAAAAAAAAAAAAAAAAAAAAAAAAAAAAAAAAAAAAAAAAAAAAAAAAAAAAAAAAAAAAAAAAAAAAAAAAAAAAAAAAAAAAAAAAAAAAAAAAAAAAAAAAAAAAAAAAAAAAAAAAAAAAAAAAAAAAAAAAAAAAAAAAAAAAAAAAAAAAAAAAAAAAAAAAAAAAAAAAAACH5BAUAAAAALAAAAAApAZYAAAf/gCWCg4SFhoeIiYqLjI2Oj5CRkpOUlZaXmJmam5ydnp+goaKjpKWmp5AYHA0Vra6vsLGys7S1tre0DRwYqL2+v6YtPwcYxcbHyMnKygfEyAc5y9LT1McHPy2FFCFAKjCHAz+EBzIwFAeOMS7ZAS4wMBwfDYc/A4gjLogRHIIH55+7gKFqkW3UCxyGcEj4RbCQACADBpA4UONDCR4nSjRYECDHAQsUHljgACMChQglZNDgEUMQjB8jSlTIICMlgWY+RlTIQYKHPRk8NDSIAAMDykEaMlhI2UIGiR8wBsyg8QFeSQpLSxzo+SGGRRkBItAY8IFliRE8SkQg0SJHvRgi/2Rg+FFT4KiGBnc4UCgBQocdC0uAgGAoBoiWhREXUngoho5BeJEKMMDDhQseQFyECOGiAAogJ0gIqEBggI0BAjikiDDBQIoKghIYsNHqploEmx+cCNECAYcLHyZwMNFAwz4VJQKU+GCDg4oYBEL8QDF7gAIKIlosQO1CQ44SA3yLGCGghIAfqU24PtHAhg0XBh5U5iCChw0eIlyQtCsqsqgYOLCwwwosIDSIByuU8EIPiEGwwyEQrNABC4EJogMDFQoSQw8rrODAY/6ZZ8AHGMiggQ0jGGeBBhUYAMQIH2jwgQA1aOBCAiUsUNw+BpSAgQgwtCBjCoJYQMAJP5jww/8C5JVgowY5UqCBKvr5IAMHBCxwwY857NPdCBOUkIAKnC3gIzotlMcilEJpcIAAH3DAgQ1AUKBCAhSUwMEPr53WQAj78QdKiKM44EFCDHDYwSA7EFaCDh68UIIEDICgAwQOOBCYBw4YAoKmJbDQKQ0FDSKADRTkKQACJYRgAHU/ZLbAbDIQkOIIKfwggmgRuIBcCe8twAEJIghSazMzVMBkeROA2cADP2iggrQlwHCACBUMcAEHbkpJgQAtKKCrfTxMUIEGytEQpgD4VQCtmwKQoB8FzfEQwjw+/DABvTys8gAvgn5CqCgOOEoIBD2UgEOnj67wmAQ7cNgSOgcuGkP/Bxka4lcJpBYyAAWrLJdNDanGEMEHB3Dg00UDZEOCCvaMAIMMdeUQcg409DNCDDCMEMEAGGQjc5wF5HDlCDXHtFzLMdTQgE8B9JtzTC/XnA0NNYxAAQ9Bx9CWBTXpcsAHKA3QgM9t0RBPwIOWagkIK/Qg99w9dPDYpBIYKoFiJUDAwqOBxbADCCWsgMMLDA8SgwcdIKTDCi9IEHkhINS90MBsZ645MJhHosMLIIAggQShg/BCg391KOkgfhvCAoE7CHi3IHD3MPvCPbxOuCCcrl5C55sHL3woDfF9yOu5J1/335P24MHz0HvAwuwlFGyI9IfgsIGh1DvouyF7CSLB/6KEAD/8+ehfYr6FoY8+evsW4iD//DhA4AHf1hfCAvOFCL77ICxgAPUK8YIdIOZThVhf+hbIQEa0YAAxYIH9ome/u0HgghjE4O4k4AH60Y9vHThUIRzAP0I8LkMgwJAidiDCSa2AbwpsoAxnKIgHbih6z2NBDwLjNxx6oAcGkoDzcKhD6sXAeJMaoOL6p0RCxOB0istYDGlIxfQJoxlYzCI0iqHFLEYDAx7pYjMCcIwAkBEZOfhiMtRYjI5QwxnGYOM13FbFOtJQFazARQVSlSo9+vGPgIyFLgBmx0Ia8pCITKQiF9GSFqTKIoQgkSFgAElBfMBtR1EEGNOxyE568v8QFXhgA0hwgg9UQAYjUAEPcsCDCvDgBzmwxyD0c5YfYOA01WoAVAZQgAPQ4CTOkYHJ5LGzYvyOazSgAcU+ycxF6oIC+PiADBpwmWRS4Ac0OBuSCIEBlqjAlgHxCQZSuQoXmIQHPGhAzwwwAoIM42czo0ALvtHMeiKyATLIgQsqAIOnXSYCV2rBJT/wgx8oJgLz+JhOlEOXA1QGI/MIZTYxQM2lGCAjMmjBAcxWDnt6tJAD4EAFfhaDETSgAQOIRgsiYBQMfMACPKiZRVqJgYiUIAcUaMABRvCDtYCnmx+gwAmAVgIVWCQGK8EADUawzI86tZBILEQO6OnERESVECb/eapWt6qID1QSEu/gqljHWgISkICsaE1rI7yq1ra6dRA5QEtT30pXrspAAQ9QTl33ytUJ4IivgH3qZQJLWI/SrARXLaxiF8vYveIxkJCNrGRzEZDGjvWK0/AIG8GIxWp49rPVSOMZpTFHy16WjoaQAGNMqMP/CUoHe3Mgak370RbkrAcRY4FrX8CAv7SweQH8Xw8kJQH+fU581MNBVBHHwgOtIGODwIGEHOAh1xpiirRVZEMG47dGKe4xjxug4Cq0A4Sk8G4FFMQKDIYDAXqKAZEyHO824F39PVdDEGCAgQ6B3ewiMkQSeOFiEie+9RJiBYei7iDgJoj8laC5hbEg/8N0sAPErRcxAR5gCjN0xBrO1r/NJJTdCPEChzkRvpTbwQZGrCHDxUC+CkvQIhy8PwXFThALGwSkWpK7BUuIcB0DsVND9OIKgQAwhihxhh4XMQJ2oAMb2F0PDIaIEismw4hFDOIUxwDCbKzBkRvVh4XsSUKt4H8d+J6Oy0sIEpYghP178+p0qAjB7VcQPTbhmQeRKRsPAnFA5NiYybxIQlVYfDugng4WBmELmZjBhujA7mLggMZFtc+FoHDG2tsBDiE5vToOTH8JXUVD71difN6ACp1o4i8TAmLUe8FfDPW/AEaVBeR7td8g0KAH8XfQpP4vaj3wPzsPQnICYgHfEP+EIOuGSsaF6IuHDuRsRzdxwIgYdbBnqO1JlZB2EGii6ALW7W0zELOgjSMc1b3ZYqQx3fAGbWnN/cnH6vGks8B3HvO971bge7J/HCS9B07wghciLYh1CdKUQ0/FDEAGe+TAXL+Rg6Z8AzE/I0S/ujROqia8WkuUJRUP0IIRmPzkKE+5ylfO8pa7/OUwj7nKYSLzmtu85hahgAxSFVcOGIBmJsVAAaBZrROY/HcyIFsLaooRoACN5648AWJkUAAM2IkCLqBAAQQRUhrkoAFNocApbbBSchQ0G8DmzwFUoNE0uv3tcI+73OdO97rb/e54jzsF8s73vvcdHbqUCAdkNvj/FpAABTw4Rz7GWXUMVOApJ1DBWFrATmGcxCTP4Vo/flABlcUpZeggyT7kZNSS14OpBVCBW1qQkfMNQGlqRTgDK3ACgG4NAy74ZeILqicfjYAEefrmAAzwg3joAiY/oIBXc1qCE1gAHTulOQ1g849dAP9puxhANoUR1DzJAAiEFB5b27r1BsogAs5QaImQ1JSyCkIcWltlLEv09aHSvwINMFoMCvCBnMXgB+oUATGVEt8QJyTgNAOAfsUgUCdwShaRAz2CPmblVuX3SXIBCc3gIzXhcZlQACI3POOnVhWoVjYVChwofmdFfm9VbokUgmk1gmk1gWS1UTuTVjCQA1XX/1Y1YFsn+FQt8AAiMFdiFQLX0VYf8ABbQlbQgQJt1QAZEH5oNQM2kFZAkHYfJQNm4lYuIA5oRQJQOFYwkDNuJU1sM1rxdoZomIbLoFeHYIZq+IZwmG5saAhuGId2eIfJMIfggQKcB3CQdVIA6Id/NB0fOAgDwIeCmG8FJQv9loiw8G+vQIjggIiO6EeQWIm2IImQYYWg4BiJ1Ta/NgrjljkDw4Kl5ja2dQiSA10W8gJQNAlCxAAMsAHfZiF8Izmgo0R90UNRpQN3E2QJ5H+TYyG8RjsVolot8QJ/gwP/cwDhhmddtggv4CiSc2zfAyBzxYxJtgMd0FQtAYzlI4YHoP9EHVYIfkFCn6g4FCIYd6YgJORglBADmDI9jSFo5ZMNU7ZgqrYBv9ViqoZki9AXvkMpHQABoiNePbAB36M9DLADieJEO8CNHVAp/eMAsigp4AgZOSMBUTYICdk4ENCReLYBUzaLDgCQfbNiC+EArrU47Sgq6pU4LyCSJeABDGA8hpJpHbIB7fg7s5WK0jUhhMAhHpIhpAMCoqIYg0E7LeQ/NQltLuQXKJZph7Fgh3MQ9fM/lLIwAhaKm1gC+qU4h5FCavYoPJZriAAxK6CQOOZrquiQytU/R0QprtVnOkBgeGZAHvAgpZgNF1JrerEBJEkIAqJiT8aPhMBpvUWRfAb/Zb/1ZZgmGPTVEjqwPYbAjfqDEBJ0XT+ZDUi2Z4gVOZCCkmZZOL7jAAkzKRtQIWnWNwSmAx0QAwdQlnDTAaApKgyAYKKyX/n1XFWJWPVzN/7xQGBZbQWpa6OjA3DziQgjGIjxOAX5mxrCjZ+oaSbEAIhTljfGYH2JWKDpmklUCJwyKRpCQAnyOa/YNwlDlwvWW7j1WxxJGHtpPLL2IW2WKGzJO4TTnQTiILOjjAvhPIqzAg2JljCJWIypILCTmjj2kG0mKbjVN9B2XobQA3sRPi1WkPQ4nJ4JXfnFN7w1IB1gkfuljMw4OoZxX06EMDxJmBtQjIjwYrU4k7VYk6rG/wBiFoov9j+Yggg9mggggJZtdjc4wKCIpQMb8m0RImcVqoxUdmSCGRgcuQExoH2h+Dgtmmr6BWM6tpez8zg98Cl4+TlyE12SljF9Nj6+GJuCAGd8s6Ma42sR5JP3WDgtqTsxOikOoBg4EJG5KSFPljtqJmuKITjOY6SsVqMzSWWEYDrylZEehlgYwzqIyjo1+mdCSjsMqozH048Xk2OZZkAlVhgshqUSYKXXtZEv2j+Ik6Xi4wEL0TivJourpj/8E2ipVas4QD6weWm12KeD4DCoWkM5I2kLhqGpFVs6MKMWU46GcEKvlmglMFyk2o+0MziTegiyFqmcKamz0zoQYv+tJIaXglBAu4ogrLiZ4glnhfBkgqAXfHOXTnQ/LaOjFooIkakwgsk4dXkoB2pCh1auhhOXBzM4gmGwggFtHaQ4jaYhtokgVDqsv3Nb/4NgB5EhBfSnuWNitGORZVmhjAprb2Zdd9mTiOVdnIpfyaii3UlpinFBPsqoBFSjF7M9xno8tLma5iiS2kNgKZtAnclnlYpYq7pgNomX8uVqgsACtKg/gulsu1ppd8YhuIaw4jOVJCY3kjKcOWOQC4YwE2kggrOnjjEYO7RgN6sIAXIII3qv4vmxCsKPB2G1fmOhFdKdB2CkEGCyfQO35SquFrIIulUYe6o/RqpgB/Kx3Sn/PgxyCKaTq78lpiymOAVEPSnEtx9HOdroKTTplcRamqm1TAeQjo0QQUL4KCxwP4VhVbj2ZN/5KLPzjT+ZMzDgWhJwbberCLBVCbmbWp7ypt/zAuJlj6mauY/QEtUYZ4iwjoqBII9Buo0winJJvNzqg0GrVYtrvYQwAEDQh5iYC987iChQiFxHieF7vpOliR5jvuhrC5fYvuorCNHwRe1mDG6ERu6GDGSkWcdQv3WIv2Bkv2qYCP8LRu9GDe02WvW7hvnbwHiIAXpICAUcAFskDWbohqIVh2zUbgfsWRH8Hc0QA9+BCMRgCCOcA3xzADAQACMQfiNMCNayCCesIacb/wo/QwI9OAgHkEk6TE8vvAgxfFNwxTY7VRckTFUqPAgwQAIokwkoPMRSlcSU4Hxbg0rGRAI4VRc/0CMcB0EukFIyQA518XscME3QMBEcMAAqrMaUxIXG8lU/gBwjEAIl8MXKhxgJmBIY4BVBUwFH1AwX+MOOoAI0MzM1YQEoYwAUMwI4MjM5gDIjcAI1YQ9kqMNqrDgokBH2UgLQRAFEVS0ptRy8kHQHYAAB8A3Q8HxCnAnmZEuPfFNElVJIAw0/EwEG8B0tEA8qUAMRYAExTAwPSFQkgBKIbC0D8A4WoFGDQBJJ5yMhBRYABcuC3FUFUFA0kHxitw4GMDJ7tA880P8CLjACxFcByVQBsFQCMFEVK6VLBUB8dJEqJ9XCgqAKPTUIVqcVJPEiHEABOfMxBZDLqbIKctLClSF2GNB6kGAAFdDCcdwC34SFvBADORUOZdx5umB0BUACukRIFVAAsndMWpEP36RKHNAStPfN+1wZSAIE3xxXiJd/85AJDeDJO8V2l3FN66A2whDOA5AAKJGKuVwBlyHJ2GDTiYdQX5x8+LSFusADbNjRYmdSJ2AAESHO4DwC/OAIMFCFxTfTYDcCS8ULw+cCurRR5pwnJ5AqwtQMJ5BMdfzF6pAn8qTSFQdJDfHC/iAI/EAXNEB16IwS+/wD5jQAocHQHBBLZSz/CS4wVUr1xQSVVctRJ6pUIpVxSvBgzhgQxBTlI5GEcPyANHKtwvygT7qkcxGAJCTgdcnHMcqXCTPjD6GhMrBRAR9gcidwGkhDFbAxsReBAmIXDjoXUq2kEa8HMnLRAASlMt3E0QUAUOvAySb3AZchDlntCEDwMy5Azy0w09ikESiRKimTKiogUu20z98BFSpD1cVHAwawJ8n3TRVnU/pEAUzcDzEt1x6ISmXlAqEhVLX3egvNAVtIDEAwCSqw0P0Szg4t3TVxSpzsAgcw0/qxT6wXJ9kiS6kCIwCj35x8FsynUxohVCEV3RGA1Vh9TfOAASFQw5IweA1QAHJyUuhM/9F0kXxBYwEuMMko0Ar7sHcDoHpZJ+MFIOHTl3UidRnxLUtn41I8RQEGQAKtIFJpgVJZEQkR8B3lIJsgVy0Ud+WvPc8As3QpAX0oMTNHZAFTBQOrBEnGtEyI0RJBPAhXrhY/PLoWUAMtEQ6T4Awmk9lGUQI1UANbDnKOfIMo0RJX/srVsoFIhBhP/OYdheaEUANFEdHLsduakE8+ggGjOwhhrMRKTDHG5CNH0RJc9OZoHjRgVxJPnByQlMIRgHGc7ulfeAoZ2AhxPgqhvFW7XkdV2hVOFQE8bHDBs8c3RTEe8VYlSOyCUslctwCyuQBkszWSPAiIrIE3NU/VDOc7zP8LuW5I9c3s/CEPtqTEEtd8D2cAM03fKaF1WhPOlxFxw7DdKgAjZKFIlyTu/GFLub53HKPGJbcWMZHRzadKMh5KwlADv0QCEt0A0MtANJACAsDi+k4KFn7vggDiDwQDZI0BbFECIyFP+EfYxL0nnVcPehLTiFQDClDgFS8QLDXoxiPF9swLXZJwEzMzgi4IJ7FICQB7L+9JsdRJKxX0tFXAD7wMLJX01RDBRt9Ah+i97StIjRhw4EsL8fv0DWSKVMT1Wt8LqdjoSFqPMfrwlQCbA2JdEdJprCi7X89ts7WXEUllAeagTqQo4vo8VvVD19Zmg7MwfIqdHCStnvv2C1T/PL8ZQeHGW0ZGIWHZZnbzYt+DpTKLWDYJX28qndCIpI3LO9CWutnGiYYvKKn4oe8FXdk6nYRTZGvGpttoaYuxAnpRkQNyZxdiOJfCPPKYKZcj+qNvF6mIa/2Dp+LpqggKoSXkrhBCXx6gaAQqKUKpZx1iu7gltXgWpn0Gqb8fPMFfQndZ+drTA4+PZyHU+e9KjZ1PKZIia7MjOy22X58aKu4VbQLWqzFGvds/PKmo945GbKBzi4DwUsLCUmIY47GxEmPY6MHwgrOzaPiy0ggB0ajDuNmhY4jjcAjZ2OggaOiw0rMjSNNiKjtLW2t7i5uru8vb6/sLHNxCU4KjaQjS/wPR47BzLNuBUxKz/CKxwsAC2ijak9ypU6rTkVoL4sAIsvKiw7LTedgj3RgTud0SG6y/z9/v/w+QF74SOrbNigGP2yiCOOBB2LEBxMFCjSw56PDMlrVKzHpIMNVO4q2BAUuaPIkypTBitBLSK/HCwYFbL0SaoiYrBqd/B1zmLAFLpdChRIv2I9kLoVGTSJc6fQpV6AAUPypYvYo1q9UfDbR6/Qo2rNixWX+gGBA1rdq1/AJgeAs3rty5dDHkeJvjLga3dfv6/Qt4L9vBhAsXzVECxgcLhg7AMAw5suTJvgYsKPHBBYYPFXickNHIwocSGEDnGACjwA9GMA5EwJB4Jv/l2bRrB4TBIQYNDiNoqGhAgQKJEjIoFBhBwcUIFzwqUODw40CLBipGfBgw2rb27dx1UTgQoMQPHh94RCAxokSB4SdU8GjQoEQFfD9q0BAeg0IDn937+6/dAAwDUPBDBBw0gAEJsVjAAQUtVNDAACeUECF0FUCH1oH/bcjhbJ3IMJNjsrxVQg4RTIOiYzLU0AgFJ3YIY4wyNnLajDbeCBmJOO7II2UDoNVjkEKyRUJ2Qx6JZFHXJclkk0zZYANiTk5JJTA5ZHBZlVpumYsNPHAJZpim8ACamGYSdkBgaq75VgSvsQlnX+GdSachBlBAVlbwWdVVnvD1uedVfQrKFZ//eg6a51Zn1UknB0vxZ4tSLUGaS1OMgukoCC94MI8pOKxg0DQesFKOKSB4MMupPZR6CA6h1tMMCy8ktAwDH8mijk0/BXWpmI5CIMpCjfTgwQ6o5uQRLT0w4BIOPdTiAasoLuPSDiBEI0tNK1BEDw6pWNqrlo4a4sGzpkTjgLmmsJDRIRC8YGu2hbh0bS0SHCuLsR7c2sg6HghL0AvwSsNruFyOWwKxsnzkAL6NsLBBqCWMusIG2njawQqdGsJCDzHoagg5tOCwgcOGQHAqwBAUMipQ+Ri8JcIOtKsKv6Y48xMIDLTLyEWyOCDrDgtTMosOy0pbwsymMmAMwS/DXKXM/9wa0g7Sg0ztCX8sXGJKDx1I0O4LQtPCAg7/ziIBOrKsfM/TUE+J8Nn0eNDBDliTazIyHdTSMa5MpxoxLSs44O0sONhMC7hvM4mwLSBIXPPId4csLeTT4Gy4A5DvhIviiyPZeC+Fk414JZPbIoHl/Hj++ZCh76JTLTGUPs2sbLHeepCaxWlXX3rJ9Sbvwtd1wA9u534kD/olyryeif6JqFeBPs8BbMhfj332hfEQy4AyvDbCYy8l9hKQtgwwQoPE/Cg++SVEgBal2n8eg3sw/PbBnS4YZ8gAHNCQg/lEQD8DsAENInAAGfzAeCWIRQRoMIIMjcACGHjQCKYTQB6sZv9+HCROCyJgABKcgDwcOEAJS8ABGBiIAw0agQIjNIIDFEAFOTDehFpwndG0wAUywIALInQn6sSAB9brYC1aQMRDYIAR1ltiicQXACntQ1KNiGIj2jcppwyABybMIA0qUILvoDBB+hlBAz4QgaoM4AcfCA5xgHCiFqCHiBTgQQQNMAAZVKc54pmTEWeBRDvCpgXGmw4+GtCCA3ARMxz4AAwQEwMplggzjozBI0vgmJnU0C0w6EQbk3iXoGiSEYgJQAB6EgPZYIYEMHhMDuTnCxM1sHoYIBNxHvMBDpCgBhUYwFvShMMTVEAGo8mBAQyRgxEYqAERgEEF2HiiEfygNBT/+mMtDiSdWEQSOWGkgHxccALEkMBReJJOb2RgAR4UQAYyKAD39HOA9FHgAz+gADtH8KUSkMBBJ3DBAFoATwrQwAUf0ONiRrDOHLhASjJgIQlycEbKFMB8qNEFNa0JSB4IsgQMggGC4IMB4AyoBP6rIT7IhAF3oi8CH1DBABpgPM8koAEnaMFEVQOE/jmIA7GoAAnyiAIVfKCmNm1pHgcQAiAZ9ATok0EnJYNFjB4liUBpwEMbkBesFi88EB3Aa/LyJR6gZQR2yUELclCdBspgOBe8ywBYAlESkEgGMehhAT5goriY1S7T/EGJBpAD0JD1AJKU6qVywJJZlEkodzGsBGMJEwgAOw==;" vertex="1" parent="1">
          <mxGeometry x="610" y="-2000" width="297" height="150" as="geometry" />
        </mxCell>
        <UserObject label="https://courses.lumenlearning.com/waymakermath4libarts/chapter/the-hindu-arabic-number-system/" link="https://courses.lumenlearning.com/waymakermath4libarts/chapter/the-hindu-arabic-number-system/" id="80_0cNDGBrCH30zZ3iBI-48">
          <mxCell style="text;whiteSpace=wrap;" vertex="1" parent="1">
            <mxGeometry x="480" y="-2070" width="560" height="50" as="geometry" />
          </mxCell>
        </UserObject>
      </root>
    </mxGraphModel>
  </diagram>
</mxfile>
